<?xml version="1.0" standalone="no"?>
<!DOCTYPE svg PUBLIC "-//W3C//DTD SVG 20010904//EN"
 "http://www.w3.org/TR/2001/REC-SVG-20010904/DTD/svg10.dtd">
<svg version="1.0" xmlns="http://www.w3.org/2000/svg"
 width="512.000000pt" height="512.000000pt" viewBox="0 0 512.000000 512.000000"
 preserveAspectRatio="xMidYMid meet">
<metadata>
Created by potrace 1.14, written by Peter Selinger 2001-2017
</metadata>
<g transform="translate(0.000000,512.000000) scale(0.100000,-0.100000)"
fill="#000000" stroke="none">
<path d="M2065 4735 c-49 -30 -135 -80 -190 -111 -55 -31 -116 -66 -135 -79
-28 -18 -395 -231 -526 -305 -17 -10 -60 -35 -95 -57 -35 -21 -80 -46 -100
-57 l-35 -18 -2 -377 c-1 -350 -3 -2183 -2 -2243 0 -28 17 -40 170 -126 25
-14 158 -90 295 -170 138 -80 354 -204 480 -277 127 -73 329 -190 450 -260
121 -70 299 -172 395 -228 101 -58 185 -100 198 -99 45 4 250 53 367 88 397
120 656 301 774 542 l29 57 2 1200 c1 660 2 1254 3 1319 l2 119 -35 23 c-28
18 -976 567 -1100 637 -19 10 -64 36 -100 57 -36 21 -81 47 -100 58 -19 11
-168 97 -331 191 -163 94 -302 171 -310 170 -8 0 -54 -25 -104 -54z"/>
</g>
</svg>
